<svg xmlns="http://www.w3.org/2000/svg" viewBox="0 0 548.1 159.73"><defs><style>.cls-1{fill:#1e1e1c;}.cls-2{fill:#fff;}.cls-3{fill:#f18619;}</style></defs><g id="Ebene_2" data-name="Ebene 2"><g id="Ebene_1-2" data-name="Ebene 1"><polygon class="cls-1" points="548.1 133.03 127.65 134.03 127.65 29.14 548.1 28.14 548.1 133.03"/><path class="cls-2" d="M158.76,81c0,44.11-34.69,78.78-78.84,78.78A79.87,79.87,0,1,1,79.92,0C124.07,0,158.76,36.85,158.76,81Z"/><path class="cls-3" d="M154.55,81c0,41.79-32.81,74.57-74.63,74.57a75.66,75.66,0,1,1,0-151.31C121.74,4.21,154.55,39.17,154.55,81Z"/><path class="cls-2" d="M79.88,22.3a57.61,57.61,0,0,0,0,115.21c31.8,0,56.56-24.74,56.56-56.51S111.68,22.3,79.88,22.3Z"/><path class="cls-2" d="M79.88,26.63a53.28,53.28,0,0,0,0,106.55c29.41,0,52.23-22.8,52.23-52.18S109.29,26.63,79.88,26.63Z"/><path class="cls-1" d="M64.8,93.16a21.56,21.56,0,0,1,2.1-1C75.68,88.36,80,81.71,80,73.53S74,58.34,64.8,55.87V93.16ZM82.44,50c19.53.61,29.79,10.58,29.79,23.6,0,11.9-6.27,17.33-30.52,21.63-18.06,3.21-22.83,7.56-22.83,15a16.37,16.37,0,0,0,4.18,11.16,16.55,16.55,0,0,1-7.31-13.75,15.31,15.31,0,0,1,3.53-10V55c-.61,0-1.21-.06-1.84-.06-.27,0-.53,0-.79,0s-.43-.36-.08-.51c.83-.35,1.74-.7,2.71-1V44.49a.33.33,0,0,1,.33-.34h4.86a.34.34,0,0,1,.33.34V51.9A74.27,74.27,0,0,1,82.44,50Z"/><path class="cls-1" d="M79.88,31.74C106.53,31.74,127,54.38,127,81s-20.47,47.07-47.12,47.07a48.17,48.17,0,0,1,0-96.33Zm0-5.11a53.28,53.28,0,0,0,0,106.55c29.41,0,52.23-22.8,52.23-52.18S109.29,26.63,79.88,26.63Z"/><path class="cls-2" d="M184.54,108.46a1.35,1.35,0,0,1-1.46-1.46V54.71a1.36,1.36,0,0,1,1.46-1.46h20.33c11.77,0,17.62,6.49,17.62,16.84v1.34c0,8.67-5.85,16.88-17.66,16.88h-8.25a1.35,1.35,0,0,0-1.46,1.46V107a1.35,1.35,0,0,1-1.47,1.46ZM205.08,77.4a5.71,5.71,0,0,0,6-5.93V70.22a5.77,5.77,0,0,0-6-6h-8.5a1.35,1.35,0,0,0-1.46,1.46V75.94a1.35,1.35,0,0,0,1.46,1.46Z"/><path class="cls-2" d="M232.37,107V54.28a1.36,1.36,0,0,1,1.46-1.46h9.11a1.36,1.36,0,0,1,1.46,1.46V107a1.35,1.35,0,0,1-1.46,1.46h-9.11A1.35,1.35,0,0,1,232.37,107Z"/><path class="cls-2" d="M258.15,107V54.71a1.36,1.36,0,0,1,1.46-1.46h22.17c11,0,17.58,6.57,17.58,17,0,6-2.32,10.44-7.26,13.45-.43.26-.65.52-.65.86a2.57,2.57,0,0,0,.22,1L300.09,106a5.63,5.63,0,0,1,.56,1.81c0,.34-.35.68-1,.68H289.22a1,1,0,0,1-.86-.68L280,87.58a.91.91,0,0,0-.9-.6h-7.44a1.36,1.36,0,0,0-1.46,1.46V107a1.35,1.35,0,0,1-1.46,1.46h-9.11A1.35,1.35,0,0,1,258.15,107Zm29.78-36V69.53c0-3-2.62-5.32-6-5.32H271.64a1.36,1.36,0,0,0-1.46,1.46V75a1.36,1.36,0,0,0,1.46,1.46h10.27C285.22,76.41,287.93,74.09,287.93,71Z"/><path class="cls-2" d="M320.84,99.7c-.69,0-.86.08-1,.51l-2,7.61a.83.83,0,0,1-.86.64H306.36c-.64,0-1-.21-1-.64a3,3,0,0,1,.17-.82c0-.13,15.73-53.28,15.73-53.28a1.33,1.33,0,0,1,1.38-.9h13a1.32,1.32,0,0,1,1.37.9l15.77,53.63a1.12,1.12,0,0,1,.09.47c0,.43-.3.64-.95.64H341.29a.85.85,0,0,1-.9-.64l-2-7.61c-.13-.43-.34-.51-1-.51Zm13.28-11c.77,0,1-.34.9-.9l-4.94-18.56-.22-1.76h-1.5l-.21,1.76-5,18.56c-.13.56.09.9.86.9Z"/><path class="cls-2" d="M366.73,107V65.67a1.36,1.36,0,0,0-1.46-1.46h-9.62a1.36,1.36,0,0,1-1.47-1.46v-8a1.36,1.36,0,0,1,1.47-1.46h34.2a1.36,1.36,0,0,1,1.46,1.46v8a1.36,1.36,0,0,1-1.46,1.46h-9.63a1.36,1.36,0,0,0-1.46,1.46V107a1.35,1.35,0,0,1-1.46,1.46h-9.11A1.35,1.35,0,0,1,366.73,107Z"/><path class="cls-2" d="M403.51,108.46a1.35,1.35,0,0,1-1.46-1.46V54.71a1.36,1.36,0,0,1,1.46-1.46h33.6a1.36,1.36,0,0,1,1.47,1.46v8a1.36,1.36,0,0,1-1.47,1.46H415.54a1.36,1.36,0,0,0-1.46,1.46v8a1.36,1.36,0,0,0,1.46,1.46h17.71a1.36,1.36,0,0,1,1.46,1.46v8a1.36,1.36,0,0,1-1.46,1.46H415.54a1.36,1.36,0,0,0-1.46,1.46v8.47a1.36,1.36,0,0,0,1.46,1.46h21.57A1.36,1.36,0,0,1,438.58,99v8a1.35,1.35,0,0,1-1.47,1.46Z"/><path class="cls-2" d="M450.61,107V54.28a1.36,1.36,0,0,1,1.46-1.46h8.42a1.42,1.42,0,0,1,1.25.6l17.14,29.74a35.17,35.17,0,0,1,2.36,4.68h.35a83.54,83.54,0,0,1-1.68-15.9V54.28a1.36,1.36,0,0,1,1.46-1.46h9.11a1.36,1.36,0,0,1,1.46,1.46V107a1.35,1.35,0,0,1-1.46,1.46h-8.33a1.38,1.38,0,0,1-1.29-.68L463.5,79.16a25.29,25.29,0,0,1-1.81-3.78h-.34c.69,2.45,1.29,8.42,1.29,14.05V107a1.35,1.35,0,0,1-1.46,1.46h-9.11A1.35,1.35,0,0,1,450.61,107Z"/></g></g></svg>